<?xml version="1.0" encoding="UTF-8" standalone="no"?>
<!-- Created with Inkscape (http://www.inkscape.org/) -->

<svg
   width="210mm"
   height="297mm"
   viewBox="0 0 210 297"
   version="1.1"
   id="svg5"
   inkscape:version="1.1.2 (0a00cf5339, 2022-02-04)"
   sodipodi:docname="logo.svg"
   xmlns:inkscape="http://www.inkscape.org/namespaces/inkscape"
   xmlns:sodipodi="http://sodipodi.sourceforge.net/DTD/sodipodi-0.dtd"
   xmlns="http://www.w3.org/2000/svg"
   xmlns:svg="http://www.w3.org/2000/svg">
  <sodipodi:namedview
     id="namedview7"
     pagecolor="#ffffff"
     bordercolor="#666666"
     borderopacity="1.0"
     inkscape:pageshadow="2"
     inkscape:pageopacity="0.0"
     inkscape:pagecheckerboard="0"
     inkscape:document-units="mm"
     showgrid="false"
     inkscape:zoom="2.5620932"
     inkscape:cx="161.39147"
     inkscape:cy="296.4373"
     inkscape:window-width="2494"
     inkscape:window-height="1016"
     inkscape:window-x="0"
     inkscape:window-y="0"
     inkscape:window-maximized="1"
     inkscape:current-layer="layer1" />
  <defs
     id="defs2">
    <rect
       x="149.78597"
       y="271.48365"
       width="350.85905"
       height="138.75373"
       id="rect75683" />
    <rect
       x="176.59206"
       y="239.227"
       width="299.50181"
       height="159.49483"
       id="rect25126" />
    <rect
       x="137.30229"
       y="107.60855"
       width="574.67051"
       height="270.32951"
       id="rect2211" />
  </defs>
  <g
     inkscape:label="Layer 1"
     inkscape:groupmode="layer"
     id="layer1">
    <g
       aria-label="SALT"
       transform="matrix(0.26458333,0,0,0.26458333,0.33320203,0.10326843)"
       id="text2209"
       style="font-size:85.3333px;line-height:1.25;white-space:pre;shape-inside:url(#rect2211);fill:#ff6600">
      <path
         d="m 162.81739,135.3427 q -6.48533,0 -12.20266,2.56 -6.144,2.73066 -9.55733,7.67999 -3.75467,5.376 -3.75467,12.37333 0,7.168 3.75467,12.544 3.75466,5.29066 10.41066,7.93599 5.54667,2.21867 11.34933,2.21867 h 8.53333 q 0.85333,0 2.13333,0.34133 -1.28,0.256 -2.13333,0.256 H 148.4814 q -4.608,0 -7.936,3.328 -3.24267,3.24266 -3.24267,7.85066 0,4.608 3.24267,7.936 3.328,3.24266 7.936,3.24266 h 22.95465 q 6.48533,0 12.20267,-2.55999 6.14399,-2.73067 9.72799,-7.85067 3.584,-5.20533 3.584,-12.20266 0,-7.168 -3.75467,-12.45866 -3.75466,-5.376 -10.41066,-8.02133 -5.54666,-2.21867 -11.34933,-2.21867 h -8.53333 q -0.85333,0 -2.13333,-0.34133 1.28,-0.256 2.13333,-0.256 h 22.86933 q 4.608,0 7.85066,-3.24266 3.328,-3.328 3.328,-7.936 0,-4.608 -3.328,-7.85066 -3.24266,-3.328 -7.85066,-3.328 z"
         style="font-family:Pouttu;-inkscape-font-specification:Pouttu;fill:#ff6600"
         id="path121171" />
      <path
         d="m 267.00928,187.48134 -22.95466,-45.99465 q -3.07199,-6.14399 -9.98399,-6.14399 -6.912,0 -9.984,6.14399 l -22.95465,45.99465 q -1.19467,2.38933 -1.19467,4.94933 0,6.912 6.144,9.984 2.38933,1.19466 5.03466,1.19466 6.912,0 9.984,-6.14399 l 5.54666,-11.09333 h 14.848 l 5.54666,11.09333 q 3.072,6.14399 9.984,6.14399 2.64533,0 5.03466,-1.19466 6.144,-3.072 6.144,-9.984 0,-2.56 -1.19467,-4.94933 z"
         style="font-family:Pouttu;-inkscape-font-specification:Pouttu;fill:#ff6600"
         id="path121173" />
      <path
         d="m 271.61713,146.52136 v 37.29065 q 0,8.53333 5.63199,14.16533 5.632,5.63199 14.16533,5.63199 h 25.85599 q 4.608,0 7.85066,-3.24266 3.24267,-3.328 3.24267,-7.936 0,-4.608 -3.24267,-7.85066 -3.24266,-3.328 -7.85066,-3.328 h -23.29599 v -34.73065 q 0,-4.608 -3.328,-7.85066 -3.24266,-3.328 -7.85066,-3.328 -4.608,0 -7.936,3.328 -3.24266,3.24266 -3.24266,7.85066 z"
         style="font-family:Pouttu;-inkscape-font-specification:Pouttu;fill:#ff6600"
         id="path121175" />
      <path
         d="m 382.63569,135.3427 h -40.19198 q -4.608,0 -7.936,3.328 -3.24266,3.24266 -3.24266,7.85066 0,4.608 3.24266,7.936 3.328,3.24266 7.936,3.24266 h 8.95999 v 34.73065 q 0,4.608 3.24267,7.936 3.24266,3.24266 7.85066,3.24266 4.69333,0 7.936,-3.24266 3.24266,-3.24267 3.24266,-7.936 v -34.73065 h 8.96 q 4.608,0 7.85066,-3.24266 3.328,-3.328 3.328,-7.936 0,-4.608 -3.328,-7.85066 -3.24266,-3.328 -7.85066,-3.328 z"
         style="font-family:Pouttu;-inkscape-font-specification:Pouttu;fill:#ff6600"
         id="path121177" />
    </g>
    <text
       xml:space="preserve"
       transform="scale(0.26458333)"
       id="text25124"
       style="fill:black;fill-opacity:1;line-height:1.25;stroke:none;font-family:sans-serif;font-style:normal;font-weight:normal;font-size:40px;white-space:pre;shape-inside:url(#rect25126)" />
    <text
       xml:space="preserve"
       style="font-style:normal;font-weight:normal;font-size:14.1111px;line-height:1.25;font-family:sans-serif;fill:#000000;fill-opacity:1;stroke:none;stroke-width:0.264583"
       x="79.83416"
       y="79.069328"
       id="text26848"><tspan
         id="tspan26846"
         style="font-style:normal;font-variant:normal;font-weight:normal;font-stretch:normal;font-size:14.1111px;font-family:'Squares Bold';-inkscape-font-specification:'Squares Bold, ';stroke-width:0.264583"
         x="79.83416"
         y="79.069328"
         sodipodi:role="line" /></text>
    <g
       aria-label="PROC"
       transform="matrix(0.22353295,0,0,0.26458333,2.1628116,-23.888955)"
       id="text75681"
       style="font-size:96px;line-height:1.25;white-space:pre;shape-inside:url(#rect75683);fill:#008000">
      <path
         d="m 207.38516,342.62872 12.48,-11.52 v -24 l -12.48,-11.52 h -49.44 v 67.2 h 13.44 v -20.16 z m -0.96,-30.72 v 14.4 l -5.28,4.8 h -29.76 v -24 h 29.76 z"
         style="font-family:'Squares Bold';-inkscape-font-specification:'Squares Bold, ';fill:#008000"
         id="path121180" />
      <path
         d="m 205.46459,337.92446 10.15249,-8.61938 0.51612,-21.7161 -9.37785,-8.2954 -44.78047,0.005 -0.005,63.38867 4.0977,0.03 0.18038,-24.87951 c 0,0 38.63015,-0.20234 39.2171,0.0868 z m 5.44257,-28.65488 0.24453,18.52013 -7.07989,6.50778 -38.28129,0.32763 -0.0995,-31.80549 37.64199,0.32752 z"
         style="font-size:96px;line-height:1.25;font-family:'Squares Bold';-inkscape-font-specification:'Squares Bold, ';white-space:pre;shape-inside:url(#rect75683);fill:#ff7f2a"
         id="path121180-9"
         sodipodi:nodetypes="cccccccccccccccc" />
      <path
         d="m 266.42512,340.70872 15.84,22.08 h 15.84 l -16.32,-22.56 11.52,-11.04 v -22.08 l -12.48,-11.52 h -48.48 v 67.2 h 13.44 v -22.08 z m 13.44,-28.8 v 12.48 l -5.28,4.8 h -28.8 v -22.08 h 28.8 z"
         style="font-family:'Squares Bold';-inkscape-font-specification:'Squares Bold, ';fill:#008000"
         id="path121182" />
      <path
         d="m 326.90494,306.14872 h 26.4 l 6.24,5.76 v 34.56 l -6.24,5.76 h -26.4 l -6.24,-5.76 v -34.56 z m -6.24,-11.52 -13.44,12.48 v 44.16 l 13.44,12.48 h 38.88 l 13.44,-12.48 v -44.16 l -13.44,-12.48 z"
         style="font-family:'Squares Bold';-inkscape-font-specification:'Squares Bold, ';fill:#008000"
         id="path121184" />
      <path
         d="m 444.98483,351.26872 h -38.88 l -6.24,-5.76 v -32.64 l 6.24,-5.76 h 38.88 v -11.52 h -45.12 l -13.44,12.48 v 42.24 l 13.44,12.48 h 45.12 z"
         style="font-family:'Squares Bold';-inkscape-font-specification:'Squares Bold, ';fill:#008000"
         id="path121186" />
    </g>
    <circle
       style="fill:#ffffff;stroke-width:0.264583"
       id="path121713"
       cx="39.963264"
       cy="49.651943"
       r="0.64381409" />
    <circle
       style="fill:#ffffff;stroke-width:0.264583"
       id="path121713-9"
       cx="44.012119"
       cy="51.711258"
       r="0.64381409" />
    <circle
       style="fill:#ffffff;stroke-width:0.264583"
       id="path121713-0"
       cx="49.689461"
       cy="37.337185"
       r="0.64381409" />
    <circle
       style="fill:#ffffff;stroke-width:0.264583"
       id="path121713-36"
       cx="48.742699"
       cy="47.400208"
       r="0.64381409" />
    <circle
       style="fill:#ffffff;stroke-width:0.264583"
       id="path121713-7"
       cx="40.864445"
       cy="52.218727"
       r="0.64381409" />
    <circle
       style="fill:#ffffff;stroke-width:0.264583"
       id="path121713-3"
       cx="45.53331"
       cy="49.500668"
       r="0.64381409" />
    <circle
       style="fill:#ffffff;stroke-width:0.264583"
       id="path121713-6"
       cx="45.805191"
       cy="39.967705"
       r="0.64381409" />
    <circle
       style="fill:#ffffff;stroke-width:0.264583"
       id="path121713-1"
       cx="48.467583"
       cy="50.744328"
       r="0.64381409" />
    <circle
       style="fill:#ffffff;stroke-width:0.264583"
       id="path121713-2"
       cx="38.354137"
       cy="41.574417"
       r="0.64381409" />
    <circle
       style="fill:#ffffff;stroke-width:0.264583"
       id="path121713-93"
       cx="41.721252"
       cy="38.678463"
       r="0.64381409" />
    <circle
       style="fill:#ffffff;stroke-width:0.264583"
       id="path121713-19"
       cx="48.269115"
       cy="44.721684"
       r="0.64381409" />
    <circle
       style="fill:#ffffff;stroke-width:0.264583"
       id="path121713-4"
       cx="44.512726"
       cy="46.128315"
       r="0.64381409" />
    <circle
       style="fill:#ffffff;stroke-width:0.264583"
       id="path121713-78"
       cx="46.538559"
       cy="43.936279"
       r="0.64381409" />
    <circle
       style="fill:#ffffff;stroke-width:0.264583"
       id="path121713-45"
       cx="41.833797"
       cy="43.316669"
       r="0.64381409" />
    <path
       d="m 38.77353,82.555529 c -4.323553,0 -8.391107,0.853333 -12.20266,2.56 -4.096,1.82044 -7.281777,4.380437 -9.55733,7.67999 -2.503113,3.584 -3.75467,7.708441 -3.75467,12.373331 0,4.77867 1.251557,8.96 3.75467,12.544 2.503107,3.52711 5.973327,6.17244 10.41066,7.93599 3.69778,1.47911 7.48089,2.21867 11.34933,2.21867 h 8.53333 c 0.568887,0 1.279997,0.11378 2.13333,0.34133 -0.853333,0.17067 -1.564443,0.256 -2.13333,0.256 H 24.43754 c -3.072,0 -5.717333,1.10933 -7.936,3.328 -2.16178,2.16177 -3.24267,4.77866 -3.24267,7.85066 0,3.072 1.08089,5.71733 3.24267,7.936 2.218667,2.16177 4.864,3.24266 7.936,3.24266 h 22.95465 c 4.323553,0 8.39111,-0.85333 12.20267,-2.55999 4.095993,-1.82045 7.338657,-4.43734 9.72799,-7.85067 2.389333,-3.47022 3.584,-7.53777 3.584,-12.20266 0,-4.77867 -1.251557,-8.93155 -3.75467,-12.45866 -2.503107,-3.584 -5.872744,-5.69001 -10.310077,-7.45356 -3.697773,-1.47911 -7.687493,-1.30151 -11.55588,-1.28008 l -4.814923,0.0267 c -2.068828,-0.17121 -5.906044,0.34615 -5.74577,-1.87436 0.153936,-2.89308 2.530967,-2.75821 7.909469,-2.73475 l 16.736069,0.073 c 3.071972,0.0134 6.603941,-0.46975 8.765714,-2.631526 2.218667,-2.218668 2.770068,-3.069405 2.770068,-6.141405 0,-3.072 -1.109333,-5.688887 -3.328,-7.85066 -2.161773,-2.218667 -4.77866,-3.328 -7.85066,-3.328 z"
       style="font-size:85.3333px;line-height:1.25;font-family:Pouttu;-inkscape-font-specification:Pouttu;white-space:pre;shape-inside:url(#rect2211);fill:#ff6600"
       id="path121171-3"
       sodipodi:nodetypes="sccsccsscsssscssccsccsccsssscss" />
    <circle
       style="fill:#ffffff;stroke-width:0.999999"
       id="path121713-88"
       cx="25.739052"
       cy="134.48341"
       r="2.4333131" />
    <circle
       style="fill:#ffffff;stroke-width:0.999999"
       id="path121713-9-3"
       cx="41.041809"
       cy="142.26665"
       r="2.4333131" />
    <circle
       style="fill:#ffffff;stroke-width:0.999999"
       id="path121713-0-1"
       cx="62.499477"
       cy="87.939438"
       r="2.4333131" />
    <circle
       style="fill:#ffffff;stroke-width:0.999999"
       id="path121713-36-8"
       cx="58.921165"
       cy="125.97291"
       r="2.4333131" />
    <circle
       style="fill:#ffffff;stroke-width:0.999999"
       id="path121713-7-9"
       cx="29.145086"
       cy="144.18465"
       r="2.4333131" />
    <circle
       style="fill:#ffffff;stroke-width:0.999999"
       id="path121713-3-6"
       cx="46.791191"
       cy="133.91165"
       r="2.4333131" />
    <circle
       style="fill:#ffffff;stroke-width:0.999999"
       id="path121713-6-4"
       cx="47.818775"
       cy="97.881561"
       r="2.4333131" />
    <circle
       style="fill:#ffffff;stroke-width:0.999999"
       id="path121713-1-3"
       cx="57.881355"
       cy="138.61211"
       r="2.4333131" />
    <circle
       style="fill:#ffffff;stroke-width:0.999999"
       id="path121713-2-3"
       cx="19.65731"
       cy="103.95418"
       r="2.4333131" />
    <circle
       style="fill:#ffffff;stroke-width:0.999999"
       id="path121713-93-3"
       cx="32.383415"
       cy="93.008835"
       r="2.4333131" />
    <circle
       style="fill:#ffffff;stroke-width:0.999999"
       id="path121713-19-8"
       cx="57.131245"
       cy="115.84936"
       r="2.4333131" />
    <circle
       style="fill:#ffffff;stroke-width:0.999999"
       id="path121713-4-6"
       cx="42.933865"
       cy="121.16576"
       r="2.4333131" />
    <circle
       style="fill:#ffffff;stroke-width:0.999999"
       id="path121713-78-0"
       cx="50.590557"
       cy="112.8809"
       r="2.4333131" />
    <circle
       style="fill:#ffffff;stroke-width:0.999999"
       id="path121713-45-4"
       cx="32.808781"
       cy="110.53907"
       r="2.4333131" />
    <circle
       style="fill:#ffffff;stroke-width:0.264583"
       id="path121713-5"
       cx="57.004173"
       cy="50.394993"
       r="0.64381409" />
    <circle
       style="fill:#ffffff;stroke-width:0.264583"
       id="path121713-47"
       cx="58.96627"
       cy="45.644646"
       r="0.64381409" />
    <circle
       style="fill:#ffffff;stroke-width:0.264583"
       id="path121713-44"
       cx="60.205494"
       cy="44.508694"
       r="0.64381409" />
    <circle
       style="fill:#ffffff;stroke-width:0.264583"
       id="path121713-30"
       cx="61.444714"
       cy="44.611961"
       r="0.64381409" />
    <circle
       style="fill:#ffffff;stroke-width:0.264583"
       id="path121713-786"
       cx="63.923157"
       cy="46.883865"
       r="0.64381409" />
    <circle
       style="fill:#ffffff;stroke-width:0.264583"
       id="path121713-8"
       cx="66.608139"
       cy="49.568844"
       r="0.64381409" />
    <circle
       style="fill:#ffffff;stroke-width:0.264583"
       id="path121713-84"
       cx="68.260429"
       cy="50.291725"
       r="0.64381409" />
    <circle
       style="fill:#ffffff;stroke-width:0.264583"
       id="path121713-31"
       cx="66.298332"
       cy="44.921764"
       r="0.64381409" />
    <circle
       style="fill:#ffffff;stroke-width:0.264583"
       id="path121713-49"
       cx="63.406815"
       cy="40.687759"
       r="0.64381409" />
    <circle
       style="fill:#ffffff;stroke-width:0.264583"
       id="path121713-20"
       cx="61.444714"
       cy="37.176632"
       r="0.64381409" />
    <circle
       style="fill:#ffffff;stroke-width:0.264583"
       id="path121713-68"
       cx="61.238178"
       cy="40.791027"
       r="0.64381409" />
    <circle
       style="fill:#ffffff;stroke-width:0.264583"
       id="path121713-92"
       cx="63.200279"
       cy="43.166203"
       r="0.64381409" />
    <circle
       style="fill:#ffffff;stroke-width:0.264583"
       id="path121713-66"
       cx="58.449928"
       cy="48.019817"
       r="0.64381409" />
    <circle
       style="fill:#ffffff;stroke-width:0.264583"
       id="path121713-495"
       cx="61.75452"
       cy="47.400208"
       r="0.64381409" />
    <circle
       style="fill:#ffffff;stroke-width:0.264583"
       id="path121713-04"
       cx="75.90229"
       cy="39.44854"
       r="0.64381409" />
    <circle
       style="fill:#ffffff;stroke-width:0.264583"
       id="path121713-87"
       cx="74.456535"
       cy="42.959667"
       r="0.64381409" />
    <circle
       style="fill:#ffffff;stroke-width:0.264583"
       id="path121713-17"
       cx="75.799026"
       cy="46.883865"
       r="0.64381409" />
    <circle
       style="fill:#ffffff;stroke-width:0.264583"
       id="path121713-27"
       cx="78.484001"
       cy="50.49826"
       r="0.64381409" />
    <circle
       style="fill:#ffffff;stroke-width:0.264583"
       id="path121713-22"
       cx="78.07093"
       cy="52.357094"
       r="0.64381409" />
    <circle
       style="fill:#ffffff;stroke-width:0.264583"
       id="path121713-61"
       cx="85.919327"
       cy="51.014603"
       r="0.64381409" />
    <circle
       style="fill:#ffffff;stroke-width:0.264583"
       id="path121713-06"
       cx="82.201668"
       cy="51.530945"
       r="0.64381409" />
    <circle
       style="fill:#ffffff;stroke-width:0.264583"
       id="path121713-15"
       cx="80.859177"
       cy="53.493046"
       r="0.64381409" />
    <circle
       style="fill:#ffffff;stroke-width:0.264583"
       id="path121713-94"
       cx="76.108833"
       cy="49.878651"
       r="0.64381409" />
    <circle
       style="fill:#ffffff;stroke-width:0.264583"
       id="path121713-90"
       cx="75.179413"
       cy="46.264256"
       r="0.64381409" />
    <circle
       style="fill:#ffffff;stroke-width:0.264583"
       id="path121713-91"
       cx="77.038246"
       cy="43.785812"
       r="0.64381409" />
    <circle
       style="fill:#ffffff;stroke-width:0.264583"
       id="path121713-77"
       cx="73.527122"
       cy="48.53616"
       r="0.64381409" />
    <circle
       style="fill:#ffffff;stroke-width:0.264583"
       id="path121713-11"
       cx="78.380737"
       cy="48.123085"
       r="0.64381409" />
    <circle
       style="fill:#ffffff;stroke-width:0.264583"
       id="path121713-59"
       cx="82.71801"
       cy="48.845966"
       r="0.64381409" />
    <circle
       style="fill:#ffffff;stroke-width:0.264583"
       id="path121713-776"
       cx="98.208275"
       cy="51.944019"
       r="0.64381409" />
    <circle
       style="fill:#ffffff;stroke-width:0.264583"
       id="path121713-73"
       cx="95.626564"
       cy="49.259041"
       r="0.64381409" />
    <circle
       style="fill:#ffffff;stroke-width:0.264583"
       id="path121713-65"
       cx="96.039635"
       cy="48.329624"
       r="0.64381409" />
    <circle
       style="fill:#ffffff;stroke-width:0.264583"
       id="path121713-63"
       cx="97.485397"
       cy="44.405422"
       r="0.64381409" />
    <circle
       style="fill:#ffffff;stroke-width:0.264583"
       id="path121713-948"
       cx="95.936371"
       cy="41.410641"
       r="0.64381409" />
    <circle
       style="fill:#ffffff;stroke-width:0.264583"
       id="path121713-12"
       cx="93.251389"
       cy="38.106049"
       r="0.64381409" />
    <circle
       style="fill:#ffffff;stroke-width:0.264583"
       id="path121713-939"
       cx="88.087967"
       cy="36.970097"
       r="0.64381409" />
    <circle
       style="fill:#ffffff;stroke-width:0.264583"
       id="path121713-08"
       cx="91.495827"
       cy="40.584492"
       r="0.64381409" />
    <circle
       style="fill:#ffffff;stroke-width:0.264583"
       id="path121713-85"
       cx="99.034424"
       cy="39.345272"
       r="0.64381409" />
    <circle
       style="fill:#ffffff;stroke-width:0.264583"
       id="path121713-09"
       cx="101.7194"
       cy="39.242001"
       r="0.64381409" />
    <circle
       style="fill:#ffffff;stroke-width:0.264583"
       id="path121713-638"
       cx="99.963837"
       cy="37.073364"
       r="0.64381409" />
    <circle
       style="fill:#ffffff;stroke-width:0.264583"
       id="path121713-56"
       cx="95.833099"
       cy="38.82893"
       r="0.64381409" />
    <circle
       style="fill:#ffffff;stroke-width:0.264583"
       id="path121713-115"
       cx="96.24617"
       cy="36.866829"
       r="0.64381409" />
  </g>
</svg>
